<?xml version="1.0" standalone="no"?>
<!DOCTYPE svg PUBLIC "-//W3C//DTD SVG 20010904//EN"
 "http://www.w3.org/TR/2001/REC-SVG-20010904/DTD/svg10.dtd">
<svg version="1.0" xmlns="http://www.w3.org/2000/svg"
 width="300.000000pt" height="300.000000pt" viewBox="0 0 300.000000 300.000000"
 preserveAspectRatio="xMidYMid meet">
<metadata>
Created by potrace 1.10, written by Peter Selinger 2001-2011
</metadata>
<g transform="translate(0.000000,300.000000) scale(0.100000,-0.100000)"
fill="#000000" stroke="none">
<path d="M1515 2650 c-18 -20 -18 -21 3 -43 l22 -21 22 21 c21 22 21 23 3 43
-10 11 -21 20 -25 20 -4 0 -15 -9 -25 -20z m41 -11 c10 -17 -13 -36 -27 -22
-12 12 -4 33 11 33 5 0 12 -5 16 -11z"/>
<path d="M1440 2635 c-13 -15 -6 -35 13 -35 6 0 28 -17 49 -37 l38 -37 35 34
35 34 0 -67 0 -67 -37 0 c-38 0 -36 15 2 22 27 5 27 43 0 43 -12 0 -21 -9 -25
-24 -7 -32 -26 -37 -40 -12 -12 24 -40 28 -40 6 0 -8 6 -15 13 -15 19 0 127
-113 127 -133 0 -9 5 -17 10 -17 6 0 10 55 10 145 0 80 -3 145 -7 145 -4 0
-24 -17 -45 -37 l-38 -37 -30 29 c-16 16 -30 36 -30 46 0 22 -26 31 -40 14z
m170 -217 l0 -32 -30 29 c-16 16 -30 30 -30 32 0 2 14 3 30 3 27 0 30 -3 30
-32z"/>
<path d="M1156 2613 c-10 -11 -7 -33 6 -33 7 0 25 -12 40 -27 26 -25 28 -33
28 -103 0 -75 0 -76 40 -115 l40 -39 -28 -29 c-15 -16 -37 -33 -50 -38 -26
-10 -25 -32 1 -37 11 -2 21 6 26 21 20 51 31 40 31 -29 l0 -68 -28 27 c-35 34
-54 36 -22 2 20 -21 21 -27 9 -41 -7 -9 -23 -20 -36 -25 -26 -10 -31 -34 -8
-43 20 -7 20 -46 0 -46 -8 0 -29 13 -46 29 l-30 29 23 24 c13 14 31 27 41 31
24 9 21 26 -7 37 -42 16 -40 30 8 79 41 41 45 49 32 60 -9 7 -17 34 -19 64
l-3 52 -2 -57 c-1 -31 -7 -60 -13 -63 -6 -4 -8 -14 -4 -23 3 -9 -6 -28 -27
-49 l-32 -33 22 -23 c28 -30 28 -32 -10 -66 l-33 -30 40 -40 c34 -35 45 -41
82 -41 33 0 43 -4 43 -16 0 -13 -10 -15 -57 -12 -46 2 -58 0 -58 -12 0 -12 14
-14 83 -11 72 3 82 1 82 -14 0 -16 -11 -17 -100 -13 -77 3 -100 1 -100 -9 0
-10 10 -12 38 -7 35 5 41 3 64 -26 15 -19 30 -30 37 -26 18 12 13 26 -14 36
-38 14 -30 20 25 20 42 0 50 -3 50 -18 0 -11 9 -27 20 -37 11 -10 20 -24 20
-31 0 -20 19 -27 36 -14 11 10 12 16 3 26 -6 8 -17 14 -24 14 -24 0 -45 36
-45 78 0 38 -2 42 -25 42 -16 0 -25 6 -25 15 0 12 13 15 55 15 30 0 55 5 55
10 0 6 -13 10 -29 10 -23 0 -31 5 -34 23 l-4 22 -2 -22 c-2 -35 -39 -31 -44 5
l-4 27 -2 -27 c-1 -36 -40 -41 -42 -5 -2 38 2 51 24 75 l21 22 29 -27 c16 -16
33 -38 38 -51 5 -14 16 -22 26 -20 24 4 28 27 6 34 -41 15 -73 57 -73 96 0 31
3 38 20 38 23 0 24 -4 8 -29 -14 -22 -4 -51 17 -51 21 0 31 29 17 51 -16 25
-16 251 -1 266 13 13 4 33 -16 33 -20 0 -29 -20 -16 -33 6 -6 11 -22 11 -36
l0 -25 -30 29 c-46 44 -38 115 12 115 11 0 18 7 18 20 0 30 -34 25 -47 -7
l-11 -28 -1 37 c-1 20 3 39 9 43 13 8 1 35 -16 35 -19 0 -29 -29 -15 -43 6 -6
11 -42 11 -82 0 -68 1 -72 35 -105 22 -21 35 -43 35 -59 0 -24 -2 -23 -45 19
l-45 44 0 76 c-1 74 -1 75 -44 122 -24 26 -46 44 -50 41z m182 -381 c3 -37 1
-42 -17 -42 -18 0 -21 6 -21 38 0 68 33 71 38 4z"/>
<path d="M1135 2445 c0 -78 3 -95 15 -95 12 0 15 17 15 95 0 79 -2 95 -15 95
-13 0 -15 -16 -15 -95z"/>
<path d="M1809 2511 c-6 -50 -18 -56 -50 -25 -34 32 -40 22 -7 -13 28 -30 15
-43 -15 -15 -35 33 -45 27 -13 -7 17 -18 24 -31 17 -35 -7 -5 -11 -87 -11
-250 0 -205 -2 -246 -15 -256 -12 -10 -13 -16 -4 -26 6 -8 17 -14 24 -14 6 0
20 -9 30 -20 18 -20 18 -21 -18 -58 l-36 -37 30 -33 c16 -18 34 -30 39 -27 15
9 12 25 -3 25 -8 0 -21 8 -30 18 -16 17 -14 21 29 63 l45 44 -2 -60 c-2 -47 0
-60 12 -60 11 0 13 14 11 68 -3 45 0 73 9 83 7 9 12 34 10 55 -2 37 -1 39 26
40 l28 1 -30 8 -30 8 30 2 30 2 -30 8 -30 7 30 5 30 5 -27 2 c-22 1 -28 6 -28
24 0 13 9 32 20 42 l20 18 -21 23 c-20 21 -21 31 -17 123 3 91 2 101 -14 101
-9 0 -19 4 -22 9 -3 5 -24 7 -46 4 -35 -5 -40 -3 -40 14 0 20 63 86 93 97 23
7 18 39 -6 44 -9 2 -18 -1 -18 -7z m-11 -247 c3 -79 3 -81 42 -119 l40 -39
-27 -28 -27 -28 -43 42 -43 42 0 109 0 108 28 -3 c27 -3 27 -4 30 -84z m41
-22 c1 -46 -3 -71 -9 -67 -6 3 -10 45 -9 93 1 107 17 83 18 -26z m-1 -200 c9
9 12 -3 12 -57 l-1 -70 -38 43 c-44 47 -51 51 -51 22 0 -11 6 -20 13 -20 8 0
22 -9 32 -20 18 -20 17 -20 -23 -20 l-42 0 0 97 0 97 43 -42 c33 -33 46 -39
55 -30z"/>
<path d="M1801 2116 c-14 -17 9 -39 33 -30 19 7 20 16 4 32 -15 15 -23 15 -37
-2z"/>
<path d="M1818 2439 c-23 -24 -23 -27 5 -49 20 -17 24 -17 40 -3 22 20 22 36
-1 56 -22 20 -22 20 -44 -4z"/>
<path d="M1500 2416 c-14 -17 -6 -36 16 -36 11 0 14 -15 14 -65 l0 -65 -30 0
c-18 0 -30 5 -30 13 1 17 25 47 39 47 6 0 11 7 11 15 0 23 -18 18 -45 -12 -23
-27 -24 -35 -25 -163 l0 -134 37 -38 37 -38 -21 -22 c-19 -18 -24 -19 -38 -8
-13 11 -13 15 -3 21 9 6 9 9 1 9 -13 0 -103 -75 -104 -87 0 -4 7 -9 15 -11 9
-2 16 3 16 11 0 7 12 24 26 38 l26 24 34 -37 c33 -37 34 -40 34 -121 0 -75 -2
-86 -24 -106 l-24 -22 4 43 c13 160 13 168 -5 168 -16 0 -17 -11 -13 -113 4
-95 2 -115 -12 -126 -15 -12 -16 -6 -16 73 l0 86 -48 0 c-49 0 -82 20 -82 48
0 15 -17 15 -26 1 -4 -7 4 -20 17 -30 l24 -19 -67 0 c-37 0 -69 4 -73 10 -8
13 -35 1 -35 -16 0 -19 29 -29 43 -15 6 6 25 11 41 11 l30 0 -32 -30 c-18 -16
-40 -30 -48 -30 -8 0 -14 -9 -14 -20 0 -13 7 -20 20 -20 11 0 20 6 20 14 0 19
65 86 84 86 12 0 16 -18 19 -92 l3 -93 2 93 2 92 55 0 55 0 0 -88 c0 -80 -2
-91 -23 -110 -13 -12 -33 -22 -45 -22 -37 0 -26 -27 13 -32 19 -2 35 0 35 4 0
4 5 8 10 8 6 0 10 -22 10 -50 0 -27 -4 -50 -8 -50 -13 0 -102 94 -102 108 0 7
-7 12 -15 12 -27 0 -16 -17 55 -86 l70 -67 0 -147 c0 -100 -4 -150 -12 -158
-16 -16 4 -37 27 -28 12 4 14 10 5 25 -6 12 -10 112 -10 259 0 201 2 242 15
252 13 11 15 -22 15 -287 0 -290 -1 -301 -21 -318 -19 -19 -20 -25 -13 -252 5
-182 4 -236 -6 -248 -7 -8 -15 -15 -19 -15 -3 0 -5 201 -4 446 l2 447 -66 68
c-37 38 -72 69 -80 69 -8 0 -13 12 -13 30 0 19 5 30 13 29 6 -1 29 -1 50 0
l37 1 0 51 c0 45 2 50 15 39 8 -7 15 -21 15 -31 0 -12 7 -19 20 -19 13 0 20 7
20 20 0 13 -7 20 -18 20 -26 0 -53 32 -50 60 2 12 -2 25 -8 27 -7 2 -9 -21 -6
-77 l5 -80 -59 0 -59 1 37 33 c36 32 40 46 11 46 -7 0 -13 -7 -13 -15 0 -12
-16 -15 -77 -16 -43 -1 -70 -3 -60 -6 24 -6 22 -43 -2 -43 -11 0 -22 4 -26 10
-8 13 -35 1 -35 -15 0 -19 18 -28 38 -20 9 4 45 9 80 11 l62 4 0 -30 0 -30
-108 0 -108 0 -59 60 -59 60 -36 -35 -36 -35 -55 58 c-31 31 -59 65 -63 75 -8
25 -31 16 -30 -12 1 -20 -3 -18 -36 14 l-36 35 -34 -36 c-19 -20 -45 -40 -57
-45 -26 -10 -30 -37 -8 -46 18 -6 26 -1 29 21 1 9 17 32 36 51 l34 35 43 -42
43 -42 -22 -23 c-12 -13 -30 -23 -41 -23 -19 0 -19 1 3 25 l24 26 -25 25 -25
25 -24 -26 -24 -25 28 -29 c16 -16 25 -34 22 -39 -8 -13 20 -36 34 -27 5 3 10
14 10 24 0 24 35 55 55 48 8 -4 15 -13 15 -22 0 -8 9 -15 20 -15 25 0 16 26
-11 33 -18 5 -28 37 -11 37 4 0 30 -22 57 -50 l49 -50 36 35 36 35 23 -24 24
-25 -33 -28 c-19 -15 -40 -33 -48 -39 -8 -6 -12 -16 -8 -22 10 -17 26 -15 33
5 4 9 20 29 37 44 l31 28 30 -30 c31 -29 31 -29 156 -29 122 0 126 -1 150 -26
l24 -26 -33 -27 c-31 -26 -33 -41 -6 -41 6 0 14 9 17 20 8 31 35 35 63 10 23
-22 24 -29 24 -137 l0 -113 -45 0 c-39 0 -45 3 -45 21 0 17 -5 20 -37 17 -37
-3 -38 -4 -38 -41 -1 -36 0 -37 37 -37 27 0 38 4 38 15 0 8 6 15 14 15 9 0 12
-7 9 -20 -4 -13 1 -22 13 -26 29 -11 54 -35 54 -54 0 -9 -13 -29 -29 -44 l-29
-28 -66 66 c-36 37 -66 75 -66 85 0 10 -7 24 -16 32 -21 17 -49 0 -48 -30 0
-11 -14 -34 -31 -51 l-31 -30 -44 45 -44 45 44 45 c49 50 60 54 67 25 3 -11
12 -20 19 -20 23 0 16 27 -12 45 -19 12 -23 20 -15 28 8 8 19 3 41 -18 16 -16
30 -35 30 -42 0 -19 30 -28 40 -12 10 15 -6 39 -26 39 -22 0 -17 14 16 45 29
28 30 28 51 9 12 -10 25 -29 30 -42 6 -14 16 -22 26 -20 25 5 28 29 3 35 -21
6 -21 6 7 35 15 17 38 34 51 39 27 10 26 42 -1 47 -11 2 -17 -3 -17 -15 0 -11
-16 -34 -35 -53 l-35 -34 -25 24 c-17 16 -25 34 -25 58 0 34 0 35 20 17 11
-10 20 -24 20 -32 0 -7 6 -13 13 -13 29 0 25 14 -16 51 -35 32 -39 38 -22 39
20 1 20 1 0 10 -20 9 -20 9 0 10 20 1 20 1 0 10 -20 9 -20 9 0 10 17 2 16 3
-5 10 -14 4 -79 8 -146 9 l-120 1 -29 -30 c-27 -28 -33 -30 -104 -30 l-75 0
34 35 c19 19 40 35 47 35 7 0 13 9 13 20 0 13 -7 20 -20 20 -13 0 -20 -7 -20
-18 0 -20 -69 -92 -88 -92 -8 0 -13 29 -14 98 -1 53 -3 76 -5 50 -4 -48 -4
-48 -41 -49 l-37 -2 40 -7 40 -7 -40 -3 -40 -3 40 -7 40 -6 -40 -6 -40 -5 38
-1 c33 -2 37 -5 37 -28 0 -23 -3 -25 -30 -19 -25 6 -30 3 -30 -12 0 -18 7 -19
88 -16 48 2 105 5 126 6 l39 3 -37 -32 c-31 -27 -34 -33 -21 -44 12 -10 16 -9
21 6 4 11 30 43 58 72 42 43 56 52 85 52 l35 0 -30 -31 c-16 -17 -39 -35 -52
-40 -26 -10 -25 -32 1 -37 10 -2 21 6 26 20 5 13 20 33 34 46 l25 23 25 -32
c14 -18 29 -29 36 -25 18 11 13 24 -16 38 -53 26 -40 38 40 38 l75 0 4 -76 c3
-73 2 -76 -28 -105 -30 -29 -31 -29 -48 -10 -17 19 -16 20 13 42 30 22 33 39
5 39 -8 0 -14 -6 -14 -14 0 -8 -16 -28 -36 -45 -19 -17 -33 -35 -30 -39 3 -5
-16 -30 -43 -56 l-47 -46 -24 25 -24 25 54 55 c30 30 60 55 67 55 7 0 13 7 13
15 0 8 -9 15 -20 15 -11 0 -20 -5 -20 -12 0 -7 -26 -38 -57 -70 l-57 -58 84
-85 84 -85 23 22 23 21 24 -22 c13 -13 27 -34 31 -48 4 -16 12 -23 23 -21 24
5 28 37 5 44 -26 10 -73 55 -67 66 15 24 54 4 117 -60 l68 -68 -26 -24 c-15
-14 -34 -25 -43 -25 -23 0 -22 -39 0 -43 12 -2 21 5 27 21 26 68 31 35 31
-199 0 -209 -2 -235 -15 -224 -8 7 -15 21 -15 31 0 12 -7 19 -20 19 -13 0 -20
-7 -20 -20 0 -11 6 -20 13 -20 8 0 23 -10 35 -23 20 -21 22 -34 22 -130 0 -68
-5 -115 -12 -127 -11 -17 -10 -22 2 -30 21 -13 49 15 32 32 -7 7 -12 44 -12
96 0 83 1 85 35 119 l35 35 0 -211 c0 -138 4 -211 10 -211 7 0 10 75 10 221
-1 189 1 224 14 238 15 14 16 11 16 -30 0 -35 5 -51 25 -69 24 -23 25 -27 28
-194 l3 -171 2 176 c2 162 1 177 -17 193 -16 15 -20 32 -20 100 l-1 82 40 39
40 39 0 -312 c0 -201 4 -312 10 -312 6 0 10 114 10 323 l0 323 40 39 40 39 0
-65 c0 -57 -3 -69 -25 -89 l-25 -23 0 -274 c0 -175 4 -273 10 -273 6 0 10 40
10 100 0 100 0 100 25 100 25 0 25 0 27 -102 2 -57 5 70 8 282 l5 385 3 -382
c1 -235 6 -383 12 -383 6 0 7 160 3 430 -5 323 -3 430 5 430 9 0 12 -82 12
-313 0 -299 1 -315 20 -332 16 -15 20 -33 23 -119 l3 -101 2 106 c2 95 0 108
-18 124 -19 18 -20 31 -20 465 0 404 2 449 16 461 16 13 17 6 12 -84 -5 -90
-4 -97 13 -97 18 0 26 20 13 33 -4 4 -6 45 -5 92 2 91 -7 106 -42 67 -14 -15
-17 -42 -17 -150 0 -88 -4 -132 -11 -132 -7 0 -9 45 -7 139 3 127 5 142 25
163 17 19 22 37 24 98 2 54 0 74 -9 73 -15 -4 -16 19 -2 33 8 8 6 15 -4 23
-20 16 -39 4 -33 -20 4 -17 -1 -19 -39 -19 -24 0 -44 4 -44 8 0 12 62 68 83
75 21 8 23 47 2 47 -9 0 -19 -10 -24 -22 -5 -13 -25 -39 -45 -57 -34 -33 -36
-38 -36 -102 0 -58 4 -72 25 -98 25 -29 26 -34 23 -151 l-3 -122 -27 22 c-26
20 -28 27 -28 94 0 60 -3 76 -20 91 -27 24 -30 125 -4 125 15 0 16 -8 10 -61
-4 -43 -3 -60 6 -57 8 3 10 46 9 144 l-2 139 40 40 41 39 0 227 c0 188 -3 229
-15 239 -17 14 -9 34 11 26 11 -4 14 6 14 44 0 43 -3 50 -20 50 -17 0 -20 -7
-20 -45 0 -47 -9 -56 -30 -30 -9 11 -10 15 -1 15 8 0 7 6 -4 16 -17 17 -45 12
-45 -8 0 -7 14 -21 32 -31 l31 -18 -28 -29 -29 -30 -33 32 c-31 30 -33 36 -33
100 0 37 4 68 8 68 4 0 16 -14 26 -31 17 -30 36 -34 44 -11 2 7 -8 16 -21 21
-39 15 -42 31 -13 59 l26 26 30 -29 c16 -16 30 -35 30 -42 0 -7 7 -13 15 -13
25 0 17 18 -26 57 -36 32 -38 38 -25 51 12 13 18 13 30 2 9 -7 16 -18 16 -26
0 -19 20 -28 33 -15 9 9 4 18 -21 38 -32 24 -32 26 -16 44 17 19 16 21 -24 62
-23 24 -42 48 -42 54 0 6 -6 16 -14 22 -10 9 -16 8 -26 -3z m80 -141 c-13 -14
-27 -25 -32 -25 -4 0 -8 26 -8 57 l0 58 32 -32 32 -32 -24 -26z m-50 -43 c0
-5 -13 -21 -30 -37 l-30 -29 0 37 c0 34 2 37 30 37 17 0 30 -4 30 -8z m88
-254 c9 -9 12 -73 12 -227 l0 -215 -42 -43 -42 -43 3 -80 c2 -68 0 -80 -13
-80 -14 0 -16 31 -16 284 0 243 -2 285 -15 296 -14 12 -13 16 6 36 12 13 26
21 30 18 14 -8 11 -318 -2 -331 -13 -13 -4 -33 16 -33 19 0 29 19 16 33 -5 7
-11 85 -12 185 -1 153 0 175 16 192 21 23 27 24 43 8z m-112 -423 c0 -82 -3
-95 -17 -95 -14 0 -18 12 -21 73 -3 60 -1 76 16 95 11 12 20 22 21 22 1 0 2
-43 1 -95z m-897 39 c-14 -14 -17 -14 -29 0 -10 13 -10 19 0 32 12 14 15 14
29 0 14 -15 14 -17 0 -32z m540 -11 c1 24 21 22 21 -3 0 -13 -7 -20 -20 -20
-14 0 -20 6 -19 23 0 21 1 21 9 2 7 -17 9 -17 9 -2z m356 -223 c0 -22 -5 -30
-17 -30 -13 0 -18 8 -18 30 0 22 5 30 18 30 12 0 17 -8 17 -30z m185 -53 c0
-44 -4 -58 -25 -77 -24 -23 -25 -28 -27 -169 l-2 -146 -3 145 c-3 140 -4 145
-30 172 -23 24 -24 29 -12 44 7 9 24 20 37 25 14 6 22 16 20 26 -5 27 -27 27
-37 0 -19 -51 -39 -42 -25 11 6 19 13 22 55 22 l49 0 0 -53z m-4 -116 c-24
-25 -26 -33 -29 -161 l-3 -135 -2 149 c-2 145 -1 149 23 178 17 20 26 43 27
71 1 32 3 28 5 -17 4 -52 1 -62 -21 -85z m-176 104 c0 -18 -5 -25 -20 -25 -15
0 -20 7 -20 25 0 18 5 25 20 25 15 0 20 -7 20 -25z m-5 -84 c2 -26 11 -52 24
-65 20 -21 21 -32 19 -197 l-2 -174 -3 166 c-3 151 -5 168 -23 184 -11 10 -20
24 -20 32 0 9 -6 12 -17 9 -16 -5 -18 0 -14 45 2 38 7 49 18 47 10 -2 16 -18
18 -47z m-247 -84 c2 -12 -3 -17 -17 -17 -12 0 -21 6 -21 13 0 31 32 34 38 4z
m245 -5 c15 -14 17 -39 17 -247 l0 -231 -40 -39 -40 -39 0 88 c0 78 2 87 15
76 8 -7 15 -19 15 -26 0 -8 7 -14 15 -14 25 0 17 18 -25 56 l-40 36 0 82 c0
74 2 85 24 105 22 21 24 29 21 102 -3 82 -1 84 38 51z m-133 -33 c0 -26 -3
-29 -14 -20 -24 20 -27 51 -5 51 15 0 19 -7 19 -31z m0 -279 l0 -170 -35 0
-35 0 0 137 0 137 32 33 c18 18 33 33 35 33 2 0 3 -76 3 -170z m250 25 l0 -91
-40 -39 -40 -39 0 47 c0 31 4 46 12 44 9 -1 11 28 9 113 l-3 115 31 -29 c30
-29 31 -32 31 -121z m17 -37 c-2 -24 -4 -7 -4 37 0 44 2 63 4 43 2 -21 2 -57
0 -80z m20 10 c-2 -18 -4 -6 -4 27 0 33 2 48 4 33 2 -15 2 -42 0 -60z m-17
-268 l0 -200 -25 0 -25 0 0 103 c0 91 2 106 20 122 17 15 20 31 20 97 0 43 2
78 5 78 3 0 5 -90 5 -200z m-270 0 c0 -28 -2 -30 -37 -29 l-38 2 35 7 35 7
-32 2 c-26 1 -33 5 -33 21 0 16 7 20 35 20 32 0 35 -2 35 -30z m0 -72 c0 -24
-9 -42 -35 -67 l-35 -34 0 67 0 66 35 0 c33 0 35 -2 35 -32z m270 -198 c0 -37
-2 -40 -27 -39 l-28 1 25 8 c24 8 24 8 3 9 -19 1 -23 7 -23 31 0 25 4 30 25
30 23 0 25 -4 25 -40z"/>
<path d="M1598 1748 c2 -164 1 -173 -20 -195 -12 -13 -27 -23 -35 -23 -7 0
-13 -6 -13 -14 0 -28 16 -24 47 13 l31 38 4 176 c2 114 -1 177 -7 177 -6 0 -9
-62 -7 -172z"/>
<path d="M1570 1780 c0 -45 4 -69 10 -65 6 3 10 33 10 65 0 32 -4 62 -10 65
-6 4 -10 -20 -10 -65z"/>
<path d="M1600 1260 c0 -5 18 -10 40 -10 22 0 40 5 40 10 0 6 -18 10 -40 10
-22 0 -40 -4 -40 -10z"/>
<path d="M1478 1095 c-3 -3 -3 -28 0 -55 4 -42 1 -53 -22 -80 -22 -26 -26 -41
-26 -90 0 -62 10 -80 30 -55 7 8 19 15 26 15 8 0 14 9 14 20 0 26 -14 25 -33
-2 -15 -22 -16 -21 -16 31 -1 43 4 60 21 78 16 17 22 37 23 78 1 51 -5 72 -17
60z"/>
<path d="M2020 2236 c-10 -13 -10 -19 0 -32 12 -14 15 -14 29 0 14 15 14 17 0
32 -14 14 -17 14 -29 0z"/>
<path d="M2082 2218 c-7 -7 -7 -14 1 -23 9 -9 14 -9 24 1 16 16 16 21 -1 27
-7 3 -18 1 -24 -5z"/>
<path d="M1979 2198 c-1 -2 -2 -34 -3 -72 -1 -53 2 -70 14 -74 26 -9 80 -65
80 -84 0 -15 -8 -18 -45 -18 l-45 0 -2 38 -1 37 -4 -35 c-3 -19 -8 -37 -12
-40 -4 -3 -11 -20 -14 -37 -6 -32 -6 -33 28 -33 19 0 37 0 40 0 3 0 5 3 5 8 0
4 -13 7 -28 7 -20 0 -28 5 -30 23 -3 21 0 22 62 22 52 0 66 3 66 15 0 8 11 22
25 31 25 17 25 34 -1 34 -8 0 -14 -7 -14 -15 0 -8 -5 -15 -11 -15 -6 0 -8 11
-5 28 3 15 6 52 8 82 2 46 -1 55 -16 58 -14 3 -17 -1 -11 -17 6 -19 2 -21 -29
-21 -29 0 -36 4 -36 19 0 11 5 23 10 26 8 5 7 11 -1 21 -10 12 -27 19 -30 12z
m91 -140 l0 -52 -30 29 c-16 15 -27 32 -24 36 2 4 0 10 -6 14 -21 13 -9 25 25
25 l35 0 0 -52z"/>
<path d="M1514 2009 c-11 -19 13 -34 31 -19 13 11 13 15 3 21 -18 12 -26 11
-34 -2z"/>
<path d="M2081 1907 c-8 -11 -6 -18 8 -31 16 -15 19 -15 31 -1 10 12 10 18 0
30 -15 19 -24 19 -39 2z"/>
<path d="M2038 1843 c-11 -27 -12 -27 -15 -5 -4 20 -10 22 -74 22 l-69 0 0
-45 c0 -32 4 -45 14 -45 8 0 -17 -30 -55 -67 l-69 -66 0 -351 1 -351 34 -37
c20 -21 40 -38 45 -38 6 0 10 -15 11 -32 4 -103 -2 -599 -7 -630 -5 -33 -3
-38 14 -38 22 0 37 26 22 35 -6 4 -10 134 -10 328 l0 323 58 55 c31 31 64 59
73 62 14 4 16 17 11 76 l-5 71 37 0 36 0 0 -78 0 -78 -57 -55 c-32 -31 -66
-59 -76 -63 -20 -7 -20 -37 0 -44 7 -2 16 5 19 15 4 10 36 47 71 84 l64 65 -3
332 c-2 267 0 333 10 337 8 3 12 16 10 32 -4 33 -37 43 -58 18 -22 -26 -40
-18 -38 16 3 35 -18 52 -29 22 -17 -48 -28 -47 -34 3 l-6 49 -1 -49 -2 -50
-35 34 c-33 32 -34 35 -18 52 26 29 103 25 133 -7 17 -18 30 -23 44 -19 31 10
45 24 39 40 -8 21 -34 17 -40 -6 -7 -26 -15 -25 -43 4 -27 29 -21 52 16 66 14
6 24 15 22 22 -8 23 -28 19 -40 -9z m-126 -150 c38 -42 40 -58 9 -87 -15 -14
-32 -26 -39 -26 -16 0 -16 -27 0 -32 7 -3 -6 -23 -30 -50 l-42 -45 0 -142 c0
-77 3 -141 8 -141 4 0 13 9 20 20 7 11 19 20 27 20 8 0 15 7 15 15 0 22 -27
18 -33 -5 -3 -11 -10 -20 -16 -20 -13 0 -15 106 -3 114 10 6 66 -51 76 -77 7
-20 37 -20 44 0 2 7 -5 16 -15 19 -21 8 -83 64 -83 76 0 4 9 8 20 8 13 0 20 7
20 20 0 30 -36 26 -44 -5 -11 -45 -26 -26 -26 33 0 46 4 63 20 77 20 18 21 18
58 -18 32 -31 44 -36 92 -38 44 -3 56 0 58 13 3 14 -5 15 -55 11 -56 -5 -59
-4 -92 31 l-34 35 26 10 c30 12 33 21 15 40 -11 10 -4 21 35 56 26 24 47 48
47 53 0 5 7 15 15 22 13 11 15 5 15 -49 l0 -61 -35 0 c-35 0 -35 0 -35 -44 l0
-44 46 0 46 0 -7 84 c-7 90 -1 101 37 67 16 -15 18 -35 18 -220 l0 -203 -35 0
-35 0 0 53 c0 49 -3 56 -45 97 -24 24 -47 41 -51 38 -3 -4 13 -23 35 -43 l41
-37 0 -132 0 -131 -42 43 -43 43 29 23 c16 13 25 29 22 35 -11 17 -22 13 -35
-11 -40 -79 -45 -83 -99 -86 l-52 -3 0 214 0 214 45 42 c47 43 56 61 30 61 -8
0 -15 -6 -15 -13 0 -7 -13 -26 -30 -42 l-30 -29 0 39 c0 33 7 47 47 87 26 26
50 48 53 48 4 0 18 -12 32 -27z m178 -533 c0 -16 -7 -20 -35 -20 -28 0 -35 4
-35 20 0 16 7 20 35 20 28 0 35 -4 35 -20z m-98 -150 c-6 -11 -12 -25 -12 -32
0 -13 -99 -118 -112 -118 -4 0 -8 7 -8 15 0 8 -6 15 -13 15 -20 0 -67 53 -67
75 0 10 10 29 22 42 l22 23 33 -32 c18 -17 33 -38 33 -44 0 -19 19 -27 35 -14
17 14 8 40 -14 40 -10 0 -30 14 -46 30 l-29 30 39 40 39 40 46 -45 c40 -40 43
-47 32 -65z m-132 77 c0 -2 -18 -21 -40 -42 l-40 -39 0 42 0 42 40 0 c22 0 40
-1 40 -3z"/>
<path d="M1980 1394 c0 -3 15 -20 33 -37 19 -18 36 -38 39 -46 5 -18 28 -6 28
15 0 8 -6 14 -14 14 -8 0 -26 14 -39 30 -23 27 -47 39 -47 24z"/>
<path d="M1895 1070 c-18 -20 -18 -21 1 -41 20 -20 20 -20 39 1 18 20 18 21
-1 41 -20 20 -20 20 -39 -1z"/>
<path d="M1180 1810 l0 -40 42 0 42 0 -39 40 c-21 22 -40 40 -42 40 -2 0 -3
-18 -3 -40z"/>
<path d="M1750 1756 c0 -7 9 -16 20 -19 39 -10 35 -35 -13 -78 -28 -24 -47
-50 -49 -66 -5 -46 -28 -40 -28 8 0 55 -6 47 -13 -18 -4 -38 -3 -53 6 -53 7 0
25 -16 41 -36 28 -35 28 -38 24 -140 -2 -68 0 -104 7 -104 7 0 9 39 7 113 -4
104 -6 114 -30 140 -20 21 -22 27 -9 27 21 0 32 19 18 33 -20 20 -11 41 40 93
l51 52 -21 23 c-11 13 -21 26 -21 31 0 4 -7 8 -15 8 -8 0 -15 -6 -15 -14z"/>
<path d="M1350 1700 c0 -36 3 -40 25 -40 23 0 25 4 25 40 0 36 -2 40 -25 40
-22 0 -25 -4 -25 -40z"/>
<path d="M1660 1692 c0 -36 5 -40 35 -34 20 3 25 10 25 33 0 26 -4 29 -30 29
-26 0 -30 -4 -30 -28z"/>
<path d="M797 1602 c-16 -18 -16 -20 1 -35 18 -16 20 -16 35 1 16 18 16 20 -1
35 -18 16 -20 16 -35 -1z"/>
<path d="M1070 1410 c0 -5 23 -10 50 -10 28 0 50 5 50 10 0 6 -22 10 -50 10
-27 0 -50 -4 -50 -10z"/>
<path d="M860 1275 c0 -21 5 -25 30 -25 25 0 30 4 30 25 0 21 -5 25 -30 25
-25 0 -30 -4 -30 -25z"/>
<path d="M1314 1257 c-17 -19 11 -43 29 -25 11 10 12 15 1 25 -15 16 -16 16
-30 0z"/>
<path d="M940 1186 c-10 -13 -10 -19 0 -32 12 -14 15 -14 29 0 14 15 14 17 0
32 -14 14 -17 14 -29 0z"/>
<path d="M1580 1056 c0 -89 18 -93 22 -6 2 51 0 70 -9 70 -9 0 -13 -20 -13
-64z"/>
<path d="M1750 812 c0 -44 -5 -83 -11 -89 -15 -15 -3 -33 22 -33 20 0 26 24 9
35 -5 3 -10 38 -10 77 0 61 2 69 15 58 13 -10 15 -50 15 -240 0 -214 -1 -228
-20 -245 -19 -17 -20 -29 -18 -199 l2 -181 3 171 c3 167 4 171 28 194 l25 23
0 232 c0 229 0 232 -23 253 -13 12 -26 22 -30 22 -4 0 -7 -35 -7 -78z"/>
<path d="M1828 795 c-8 -8 3 -65 13 -65 5 0 9 16 9 35 0 32 -8 43 -22 30z"/>
<path d="M1210 765 c0 -12 8 -16 33 -13 17 2 32 8 32 13 0 6 -15 11 -32 13
-25 3 -33 -1 -33 -13z"/>
<path d="M1210 725 c0 -10 10 -15 30 -15 20 0 30 5 30 15 0 10 -10 15 -30 15
-20 0 -30 -5 -30 -15z"/>
<path d="M1210 685 c0 -10 10 -15 30 -15 20 0 30 5 30 15 0 10 -10 15 -30 15
-20 0 -30 -5 -30 -15z"/>
<path d="M1210 640 c0 -5 14 -10 30 -10 17 0 30 5 30 10 0 6 -13 10 -30 10
-16 0 -30 -4 -30 -10z"/>
<path d="M1210 600 c0 -5 14 -10 30 -10 17 0 30 5 30 10 0 6 -13 10 -30 10
-16 0 -30 -4 -30 -10z"/>
<path d="M1736 562 c-2 -4 -1 -23 4 -42 9 -40 11 -39 15 8 3 31 -8 51 -19 34z"/>
<path d="M1900 530 c0 -5 14 -10 30 -10 17 0 30 5 30 10 0 6 -13 10 -30 10
-16 0 -30 -4 -30 -10z"/>
<path d="M1900 490 c0 -5 14 -10 30 -10 17 0 30 5 30 10 0 6 -13 10 -30 10
-16 0 -30 -4 -30 -10z"/>
<path d="M1457 469 c-4 -15 -1 -19 11 -17 21 4 29 38 9 38 -8 0 -17 -9 -20
-21z"/>
<path d="M1900 450 c0 -5 14 -10 30 -10 17 0 30 5 30 10 0 6 -13 10 -30 10
-16 0 -30 -4 -30 -10z"/>
</g>
</svg>
